<?xml version="1.0" encoding="UTF-8" standalone="no"?>
<!DOCTYPE svg PUBLIC "-//W3C//DTD SVG 20000802//EN" "http://www.w3.org/TR/2000/CR-SVG-20000802/DTD/svg-20000802.dtd">
<svg height="400" width="600" xmlns="http://www.w3.org/2000/svg">
  <rect fill="#3efb62" height="255" width="34" x="273" y="140"/>
  <rect fill="#2edf45" height="91" width="385" x="74" y="261"/>
  <rect fill="#be5063" height="38" width="1" x="141" y="359"/>
  <rect fill="#e58841" height="161" width="279" x="306" y="152"/>
  <rect fill="#65a621" height="30" width="215" x="371" y="279"/>
  <rect fill="#7b5770" height="132" width="129" x="432" y="41"/>
  <rect fill="#76e364" height="29" width="28" x="321" y="359"/>
  <rect fill="#2926a5" height="3" width="138" x="108" y="395"/>
  <rect fill="#c6461f" height="108" width="24" x="387" y="280"/>
  <rect fill="#ef60be" height="30" width="19" x="557" y="95"/>
  <rect fill="#89cee5" height="160" width="169" x="372" y="176"/>
  <rect fill="#7836f9" height="146" width="188" x="165" y="228"/>
  <rect fill="#a04231" height="296" width="3" x="595" y="54"/>
  <rect fill="#5180b7" height="113" width="84" x="305" y="92"/>
  <rect fill="#aac81b" height="256" width="16" x="51" y="82"/>
  <rect fill="#5ac031" height="10" width="28" x="450" y="79"/>
  <rect fill="#7e9f45" height="112" width="394" x="38" y="142"/>
  <rect fill="#8bbf42" height="91" width="128" x="421" y="229"/>
  <rect fill="#c9565c" height="32" width="135" x="69" y="98"/>
  <rect fill="#87a6fe" height="25" width="75" x="459" y="60"/>
  <rect fill="#4c818a" height="43" width="135" x="319" y="312"/>
  <rect fill="#cd0b68" height="149" width="68" x="280" y="112"/>
  <rect fill="#9f6a8c" height="18" width="3" x="591" y="54"/>
  <rect fill="#a25e0d" height="96" width="296" x="288" y="216"/>
  <rect fill="#e8c565" height="10" width="126" x="341" y="205"/>
  <rect fill="#579ae8" height="100" width="18" x="342" y="95"/>
  <rect fill="#e84361" height="53" width="70" x="497" y="6"/>
  <rect fill="#32f8e2" height="28" width="235" x="195" y="255"/>
</svg>
