<?xml version="1.0" ?><!DOCTYPE svg PUBLIC "-//W3C//DTD SVG 20000802//EN" "http://www.w3.org/TR/2000/CR-SVG-20000802/DTD/svg-20000802.dtd"><svg xmlns="http://www.w3.org/2000/svg" width="600" height="400"><rect x="572" y="128" width="10" height="257" fill="#40bc3b"/><rect x="402" y="24" width="169" height="124" fill="#d35958"/><rect x="222" y="63" width="308" height="31" fill="#4fa430"/><rect x="114" y="348" width="417" height="6" fill="#0edd83"/><rect x="276" y="294" width="242" height="94" fill="#2b5200"/><rect x="455" y="355" width="71" height="6" fill="#008f8e"/><rect x="464" y="391" width="113" height="0" fill="#0d8ef6"/><rect x="441" y="350" width="26" height="7" fill="#4e1819"/><rect x="428" y="254" width="143" height="81" fill="#107ab5"/><rect x="472" y="143" width="85" height="186" fill="#cec017"/><rect x="398" y="18" width="193" height="301" fill="#31ddb5"/><rect x="478" y="281" width="39" height="86" fill="#c69c6c"/><rect x="111" y="225" width="135" height="86" fill="#cbd9ea"/><rect x="257" y="119" width="289" height="216" fill="#9f18eb"/><rect x="364" y="220" width="48" height="128" fill="#a261dd"/><rect x="28" y="268" width="55" height="41" fill="#4bc3c2"/><rect x="188" y="259" width="27" height="81" fill="#ef5519"/><rect x="380" y="42" width="65" height="186" fill="#f0c46d"/><rect x="147" y="28" width="113" height="162" fill="#819180"/><rect x="195" y="257" width="115" height="133" fill="#2fa89a"/><rect x="377" y="366" width="108" height="29" fill="#f3a64b"/><rect x="491" y="112" width="67" height="120" fill="#1d76e1"/><rect x="377" y="285" width="47" height="96" fill="#c47ca9"/></svg>